<mxfile host="app.diagrams.net" modified="2024-04-11T13:00:50.188Z" agent="Mozilla/5.0 (Macintosh; Intel Mac OS X 10_15_7) AppleWebKit/537.36 (KHTML, like Gecko) Chrome/123.0.0.0 Safari/537.36" etag="fLDGtkwcf5LN9AsRiLCB" version="24.2.1" type="device">
  <diagram name="Страница — 1" id="Tk2gv4fwqHmp9qEmyPy6">
    <mxGraphModel dx="1912" dy="582" grid="1" gridSize="10" guides="1" tooltips="1" connect="1" arrows="1" fold="1" page="1" pageScale="1" pageWidth="827" pageHeight="1169" math="0" shadow="0">
      <root>
        <mxCell id="0" />
        <mxCell id="1" parent="0" />
        <mxCell id="ybw-ea6jZVYRjS152vAR-17" style="edgeStyle=orthogonalEdgeStyle;rounded=0;orthogonalLoop=1;jettySize=auto;html=1;" parent="1" source="ybw-ea6jZVYRjS152vAR-3" target="ybw-ea6jZVYRjS152vAR-16" edge="1">
          <mxGeometry relative="1" as="geometry" />
        </mxCell>
        <mxCell id="ybw-ea6jZVYRjS152vAR-3" value="&amp;nbsp;Глобальный админ" style="shape=umlActor;verticalLabelPosition=bottom;verticalAlign=top;html=1;outlineConnect=0;" parent="1" vertex="1">
          <mxGeometry x="340" y="120" width="20" height="40" as="geometry" />
        </mxCell>
        <mxCell id="ybw-ea6jZVYRjS152vAR-23" style="edgeStyle=orthogonalEdgeStyle;rounded=0;orthogonalLoop=1;jettySize=auto;html=1;entryX=0.5;entryY=1;entryDx=0;entryDy=0;" parent="1" source="ybw-ea6jZVYRjS152vAR-4" target="ybw-ea6jZVYRjS152vAR-12" edge="1">
          <mxGeometry relative="1" as="geometry" />
        </mxCell>
        <mxCell id="ybw-ea6jZVYRjS152vAR-32" style="edgeStyle=orthogonalEdgeStyle;rounded=0;orthogonalLoop=1;jettySize=auto;html=1;" parent="1" source="ybw-ea6jZVYRjS152vAR-4" target="ybw-ea6jZVYRjS152vAR-30" edge="1">
          <mxGeometry relative="1" as="geometry" />
        </mxCell>
        <mxCell id="ybw-ea6jZVYRjS152vAR-4" value="Футбольный клуб" style="shape=umlActor;verticalLabelPosition=bottom;verticalAlign=top;html=1;outlineConnect=0;" parent="1" vertex="1">
          <mxGeometry x="140" y="630" width="20" height="40" as="geometry" />
        </mxCell>
        <mxCell id="ybw-ea6jZVYRjS152vAR-15" style="edgeStyle=orthogonalEdgeStyle;rounded=0;orthogonalLoop=1;jettySize=auto;html=1;entryX=1;entryY=0.5;entryDx=0;entryDy=0;" parent="1" target="ybw-ea6jZVYRjS152vAR-13" edge="1">
          <mxGeometry relative="1" as="geometry">
            <mxPoint x="730" y="380" as="sourcePoint" />
          </mxGeometry>
        </mxCell>
        <mxCell id="ybw-ea6jZVYRjS152vAR-19" style="edgeStyle=orthogonalEdgeStyle;rounded=0;orthogonalLoop=1;jettySize=auto;html=1;entryX=1;entryY=0.5;entryDx=0;entryDy=0;" parent="1" source="ybw-ea6jZVYRjS152vAR-7" target="ybw-ea6jZVYRjS152vAR-16" edge="1">
          <mxGeometry relative="1" as="geometry">
            <Array as="points">
              <mxPoint x="710" y="380" />
              <mxPoint x="710" y="245" />
            </Array>
          </mxGeometry>
        </mxCell>
        <mxCell id="ybw-ea6jZVYRjS152vAR-31" style="edgeStyle=orthogonalEdgeStyle;rounded=0;orthogonalLoop=1;jettySize=auto;html=1;entryX=1;entryY=0.5;entryDx=0;entryDy=0;" parent="1" source="ybw-ea6jZVYRjS152vAR-7" target="ybw-ea6jZVYRjS152vAR-30" edge="1">
          <mxGeometry relative="1" as="geometry" />
        </mxCell>
        <mxCell id="ybw-ea6jZVYRjS152vAR-39" style="edgeStyle=orthogonalEdgeStyle;rounded=0;orthogonalLoop=1;jettySize=auto;html=1;entryX=1;entryY=0.5;entryDx=0;entryDy=0;" parent="1" source="ybw-ea6jZVYRjS152vAR-7" target="ybw-ea6jZVYRjS152vAR-38" edge="1">
          <mxGeometry relative="1" as="geometry">
            <Array as="points">
              <mxPoint x="500" y="380" />
              <mxPoint x="500" y="425" />
            </Array>
          </mxGeometry>
        </mxCell>
        <mxCell id="ybw-ea6jZVYRjS152vAR-7" value="Админ футбольного клуба" style="shape=umlActor;verticalLabelPosition=bottom;verticalAlign=top;html=1;outlineConnect=0;" parent="1" vertex="1">
          <mxGeometry x="730" y="360" width="20" height="40" as="geometry" />
        </mxCell>
        <mxCell id="ybw-ea6jZVYRjS152vAR-18" style="edgeStyle=orthogonalEdgeStyle;rounded=0;orthogonalLoop=1;jettySize=auto;html=1;entryX=0;entryY=0.5;entryDx=0;entryDy=0;" parent="1" source="ybw-ea6jZVYRjS152vAR-8" target="ybw-ea6jZVYRjS152vAR-16" edge="1">
          <mxGeometry relative="1" as="geometry" />
        </mxCell>
        <mxCell id="ybw-ea6jZVYRjS152vAR-22" style="edgeStyle=orthogonalEdgeStyle;rounded=0;orthogonalLoop=1;jettySize=auto;html=1;" parent="1" source="ybw-ea6jZVYRjS152vAR-8" target="ybw-ea6jZVYRjS152vAR-20" edge="1">
          <mxGeometry relative="1" as="geometry" />
        </mxCell>
        <mxCell id="ybw-ea6jZVYRjS152vAR-28" style="edgeStyle=orthogonalEdgeStyle;rounded=0;orthogonalLoop=1;jettySize=auto;html=1;entryX=0;entryY=0.5;entryDx=0;entryDy=0;" parent="1" source="ybw-ea6jZVYRjS152vAR-8" target="ybw-ea6jZVYRjS152vAR-27" edge="1">
          <mxGeometry relative="1" as="geometry">
            <Array as="points">
              <mxPoint x="-80" y="410" />
              <mxPoint x="-80" y="780" />
            </Array>
          </mxGeometry>
        </mxCell>
        <mxCell id="ybw-ea6jZVYRjS152vAR-8" value="Админ продажи" style="shape=umlActor;verticalLabelPosition=bottom;verticalAlign=top;html=1;outlineConnect=0;" parent="1" vertex="1">
          <mxGeometry x="104" y="390" width="20" height="40" as="geometry" />
        </mxCell>
        <mxCell id="ybw-ea6jZVYRjS152vAR-24" style="edgeStyle=orthogonalEdgeStyle;rounded=0;orthogonalLoop=1;jettySize=auto;html=1;entryX=0.5;entryY=1;entryDx=0;entryDy=0;" parent="1" source="ybw-ea6jZVYRjS152vAR-11" target="ybw-ea6jZVYRjS152vAR-20" edge="1">
          <mxGeometry relative="1" as="geometry">
            <mxPoint x="750" y="540" as="sourcePoint" />
            <mxPoint x="170.00000000000023" y="870" as="targetPoint" />
            <Array as="points">
              <mxPoint x="690" y="480" />
              <mxPoint x="690" y="730" />
              <mxPoint x="20" y="730" />
            </Array>
          </mxGeometry>
        </mxCell>
        <mxCell id="ybw-ea6jZVYRjS152vAR-29" style="edgeStyle=orthogonalEdgeStyle;rounded=0;orthogonalLoop=1;jettySize=auto;html=1;entryX=1;entryY=0.5;entryDx=0;entryDy=0;" parent="1" source="ybw-ea6jZVYRjS152vAR-11" target="ybw-ea6jZVYRjS152vAR-27" edge="1">
          <mxGeometry relative="1" as="geometry">
            <Array as="points">
              <mxPoint x="690" y="480" />
              <mxPoint x="690" y="780" />
            </Array>
          </mxGeometry>
        </mxCell>
        <mxCell id="ybw-ea6jZVYRjS152vAR-36" style="edgeStyle=orthogonalEdgeStyle;rounded=0;orthogonalLoop=1;jettySize=auto;html=1;entryX=0.5;entryY=0;entryDx=0;entryDy=0;" parent="1" source="ybw-ea6jZVYRjS152vAR-11" target="ybw-ea6jZVYRjS152vAR-30" edge="1">
          <mxGeometry relative="1" as="geometry" />
        </mxCell>
        <mxCell id="ybw-ea6jZVYRjS152vAR-11" value="Покупатель" style="shape=umlActor;verticalLabelPosition=bottom;verticalAlign=top;html=1;outlineConnect=0;" parent="1" vertex="1">
          <mxGeometry x="730" y="460" width="20" height="40" as="geometry" />
        </mxCell>
        <mxCell id="ybw-ea6jZVYRjS152vAR-12" value="" style="rounded=1;whiteSpace=wrap;html=1;" parent="1" vertex="1">
          <mxGeometry x="315" y="550" width="90" height="50" as="geometry" />
        </mxCell>
        <mxCell id="ybw-ea6jZVYRjS152vAR-13" value="подать заявление на продажу билетов" style="text;html=1;align=center;verticalAlign=middle;whiteSpace=wrap;rounded=0;" parent="1" vertex="1">
          <mxGeometry x="315" y="560" width="90" height="30" as="geometry" />
        </mxCell>
        <mxCell id="ybw-ea6jZVYRjS152vAR-16" value="Управление ролями" style="rounded=1;whiteSpace=wrap;html=1;" parent="1" vertex="1">
          <mxGeometry x="290" y="230" width="120" height="30" as="geometry" />
        </mxCell>
        <mxCell id="ybw-ea6jZVYRjS152vAR-20" value="Оформить заказ" style="rounded=1;whiteSpace=wrap;html=1;" parent="1" vertex="1">
          <mxGeometry x="-40" y="650" width="120" height="60" as="geometry" />
        </mxCell>
        <mxCell id="ybw-ea6jZVYRjS152vAR-27" value="Выдача скидки" style="rounded=1;whiteSpace=wrap;html=1;" parent="1" vertex="1">
          <mxGeometry x="-25" y="760" width="90" height="40" as="geometry" />
        </mxCell>
        <mxCell id="ybw-ea6jZVYRjS152vAR-30" value="редактирование страницы профиля" style="rounded=1;whiteSpace=wrap;html=1;" parent="1" vertex="1">
          <mxGeometry x="400" y="620" width="120" height="60" as="geometry" />
        </mxCell>
        <mxCell id="ybw-ea6jZVYRjS152vAR-38" value="Добавление билетов в продажу" style="rounded=1;whiteSpace=wrap;html=1;" parent="1" vertex="1">
          <mxGeometry x="320" y="400" width="100" height="50" as="geometry" />
        </mxCell>
      </root>
    </mxGraphModel>
  </diagram>
</mxfile>
